<svg xmlns="http://www.w3.org/2000/svg" width="960" height="540" viewBox="0 0 960 540" role="img" aria-label="Transactions preview">
  <rect width="960" height="540" fill="#f9fafb"/>
  <rect x="0" y="0" width="200" height="540" fill="#fff" stroke="#e5e7eb"/>
  <rect x="24" y="80" width="152" height="36" rx="8" fill="transparent" stroke="#e5e7eb"/>
  <text x="36" y="103" fill="#374151" font-family="system-ui,sans-serif" font-size="13">Dashboard</text>
  <rect x="24" y="128" width="152" height="36" rx="8" fill="#4f46e5"/>
  <text x="36" y="151" fill="#fff" font-family="system-ui,sans-serif" font-size="13" font-weight="600">Transactions</text>
  <rect x="24" y="176" width="152" height="36" rx="8" fill="transparent" stroke="#e5e7eb"/>
  <text x="36" y="199" fill="#374151" font-family="system-ui,sans-serif" font-size="13">Insights</text>
  <rect x="200" y="0" width="760" height="56" fill="#fff" stroke="#e5e7eb"/>
  <text x="224" y="36" fill="#111827" font-family="system-ui,sans-serif" font-size="18" font-weight="700">Finance Dashboard</text>
  <rect x="220" y="80" width="280" height="40" rx="8" fill="#fff" stroke="#d1d5db"/>
  <text x="236" y="106" fill="#9ca3af" font-family="system-ui,sans-serif" font-size="13">Search by category&</text>
  <rect x="512" y="80" width="140" height="40" rx="8" fill="#fff" stroke="#d1d5db"/>
  <text x="528" y="106" fill="#374151" font-family="system-ui,sans-serif" font-size="13">All types</text>
  <rect x="220" y="140" width="716" height="200" rx="12" fill="#fff" stroke="#e5e7eb"/>
  <rect x="236" y="160" width="684" height="36" fill="#f3f4f6"/>
  <text x="252" y="183" fill="#374151" font-family="system-ui,sans-serif" font-size="12" font-weight="600">Category</text>
  <text x="520" y="183" fill="#374151" font-family="system-ui,sans-serif" font-size="12" font-weight="600">Amount</text>
  <text x="680" y="183" fill="#374151" font-family="system-ui,sans-serif" font-size="12" font-weight="600">Type</text>
  <line x1="236" y1="204" x2="920" y2="204" stroke="#e5e7eb"/>
  <text x="252" y="232" fill="#111827" font-family="system-ui,sans-serif" font-size="13">Salary</text>
  <text x="520" y="232" fill="#059669" font-family="system-ui,sans-serif" font-size="13">ą 60,000</text>
  <text x="680" y="232" fill="#6b7280" font-family="system-ui,sans-serif" font-size="11">INCOME</text>
  <line x1="236" y1="248" x2="920" y2="248" stroke="#f3f4f6"/>
  <text x="252" y="276" fill="#111827" font-family="system-ui,sans-serif" font-size="13">Food</text>
  <text x="520" y="276" fill="#dc2626" font-family="system-ui,sans-serif" font-size="13">ą 5,000</text>
  <text x="680" y="276" fill="#6b7280" font-family="system-ui,sans-serif" font-size="11">EXPENSE</text>
  <line x1="236" y1="292" x2="920" y2="292" stroke="#f3f4f6"/>
  <text x="252" y="320" fill="#111827" font-family="system-ui,sans-serif" font-size="13">Travel</text>
  <text x="520" y="320" fill="#dc2626" font-family="system-ui,sans-serif" font-size="13">ą 15,000</text>
  <text x="680" y="320" fill="#6b7280" font-family="system-ui,sans-serif" font-size="11">EXPENSE</text>
</svg>
